<?xml version="1.0" encoding="utf-8"?>
<!-- Generator: Adobe Illustrator 18.0.0, SVG Export Plug-In . SVG Version: 6.00 Build 0)  -->
<!DOCTYPE svg PUBLIC "-//W3C//DTD SVG 1.1//EN" "http://www.w3.org/Graphics/SVG/1.1/DTD/svg11.dtd">
<svg version="1.1" id="Capa_1" xmlns="http://www.w3.org/2000/svg" xmlns:xlink="http://www.w3.org/1999/xlink" x="0px" y="0px"
	 viewBox="0 0 45.7 45.7" enable-background="new 0 0 45.7 45.7" xml:space="preserve">
<g>
	<g>
		<path fill="#78CC5A" d="M4.2,24c0.3,0.1,0.7,0.1,1,0l7.9-3.4c0.5-0.2,0.8-0.7,0.8-1.3c0-0.5-0.3-1-0.8-1.2L11,17.2
			c2-4.7,6.7-7.9,12-7.9c5.3,0,10,3.3,12,8c0.7,1.6,2.4,2.5,4.1,2.2l0.3-0.1c1.1-0.2,2-0.9,2.6-1.9c0.5-1,0.6-2.2,0.1-3.2
			C38.9,6.8,31.4,1.6,23,1.6c-8.5,0-16,5.1-19.2,12.8l-2-0.8c-0.5-0.2-1.1-0.1-1.5,0.3c-0.4,0.4-0.5,1-0.3,1.5l3.4,7.9
			C3.6,23.6,3.9,23.9,4.2,24z"/>
		<path fill="#78CC5A" d="M45.6,30.3l-3.4-7.9c-0.1-0.3-0.4-0.6-0.7-0.7s-0.7-0.1-1,0l-7.9,3.4c-0.5,0.2-0.8,0.7-0.8,1.3
			c0,0.5,0.3,1,0.8,1.2l2.2,0.9c-2,4.7-6.7,7.9-12,7.9c-5.3,0-10-3.3-12-8c-0.7-1.6-2.4-2.5-4.1-2.2l-0.3,0.1
			c-1.1,0.2-2,0.9-2.6,1.9c-0.5,1-0.6,2.2-0.1,3.2c3.2,7.5,10.7,12.8,19.1,12.8c8.5,0,16-5.1,19.2-12.8l2,0.8
			c0.5,0.2,1.1,0.1,1.5-0.3C45.7,31.4,45.8,30.8,45.6,30.3z"/>
	</g>
</g>
</svg>
