<?xml version="1.0" encoding="utf-8"?>
<!-- Generator: Adobe Illustrator 18.0.0, SVG Export Plug-In . SVG Version: 6.00 Build 0)  -->
<!DOCTYPE svg PUBLIC "-//W3C//DTD SVG 1.1//EN" "http://www.w3.org/Graphics/SVG/1.1/DTD/svg11.dtd">
<svg version="1.1" id="Capa_1" xmlns="http://www.w3.org/2000/svg" xmlns:xlink="http://www.w3.org/1999/xlink" x="0px" y="0px"
	 viewBox="0 0 4096 2048" enable-background="new 0 0 4096 2048" xml:space="preserve">
<g>
	<path fill="#FFFFFF" d="M2130.9,1930.7c0,56.9-46.4,103.3-103.3,103.3c-56.9,0-103.3-46.4-103.3-103.3
		c0-56.9,46.4-103.3,103.3-103.3C2084,1827.3,2130.9,1873.7,2130.9,1930.7z M2559.6,524.9c0,180.9-103.3,346.4-294.7,459.8
		c-139.7,82.8-134.5,180.9-134.5,186.1c0,0,0,5.3,0,10.5v237.8c0,51.7-41.2,92.8-92.8,92.8s-98.1-41.2-98.1-92.8v-232.5
		c-5.3-82.8,36.4-243.1,222-356.5c92.8-56.9,201.4-155,201.4-299.5C2363,355,2218.5,210,2042.4,210s-320.6,144.5-320.6,320.6
		c0,51.7-41.2,92.8-92.8,92.8c-51.7,0-92.8-41.2-92.8-92.8c0-284.2,227.3-511.5,511.5-511.5S2559.6,240.7,2559.6,524.9z"/>
</g>
</svg>
