<?xml version="1.0" encoding="utf-8"?>
<!-- Generator: Adobe Illustrator 18.0.0, SVG Export Plug-In . SVG Version: 6.00 Build 0)  -->
<!DOCTYPE svg PUBLIC "-//W3C//DTD SVG 1.1//EN" "http://www.w3.org/Graphics/SVG/1.1/DTD/svg11.dtd">
<svg version="1.1" id="Layer_1" xmlns="http://www.w3.org/2000/svg" xmlns:xlink="http://www.w3.org/1999/xlink" x="0px" y="0px"
	 viewBox="0 0 24 24" enable-background="new 0 0 24 24" xml:space="preserve">
<g>
	<path fill="#FFFFFF" d="M18.6,0.6h-0.8H16h-3H6.4h-1c-2.6,0-4.8,2.1-4.8,4.8v13.2c0,2.6,2.1,4.8,4.8,4.8h0.7H18h0.6
		c2.6,0,4.8-2.1,4.8-4.8V5.4C23.4,2.8,21.2,0.6,18.6,0.6z M15.6,1.4v2.8h-2.2V1.4H15.6z M12.6,1.4v3.2C12.6,4.9,12.8,5,13,5h3
		c0.2,0,0.4-0.2,0.4-0.4V1.4h1v5.3H6.8V1.4H12.6z M6.5,22.6v-9.1h11.1v9.1H6.5z M22.6,18.6c0,2.2-1.8,4-4,4h-0.2V13
		c0-0.2-0.2-0.4-0.4-0.4H6.1c-0.2,0-0.4,0.2-0.4,0.4v9.5H5.4c-2.2,0-4-1.8-4-4V5.4c0-2.2,1.8-4,4-4H6v5.7c0,0.2,0.2,0.4,0.4,0.4
		h11.4c0.2,0,0.4-0.2,0.4-0.4V1.4h0.4c2.2,0,4,1.8,4,4L22.6,18.6L22.6,18.6z"/>
	<path fill="#FFFFFF" d="M15.2,15.6H9.1c-0.2,0-0.4,0.2-0.4,0.4c0,0.2,0.2,0.4,0.4,0.4h6.1c0.2,0,0.4-0.2,0.4-0.4
		S15.4,15.6,15.2,15.6z"/>
	<path fill="#FFFFFF" d="M15.2,19H9.1c-0.2,0-0.4,0.2-0.4,0.4s0.2,0.4,0.4,0.4h6.1c0.2,0,0.4-0.2,0.4-0.4S15.4,19,15.2,19z"/>
</g>
</svg>
