<?xml version="1.0" standalone="no"?>
<!DOCTYPE svg PUBLIC "-//W3C//DTD SVG 1.1//EN" "http://www.w3.org/Graphics/SVG/1.1/DTD/svg11.dtd" >
<svg xmlns="http://www.w3.org/2000/svg" xmlns:xlink="http://www.w3.org/1999/xlink" version="1.1">
<metadata></metadata>
<defs>
<font id="yantramanavblack" horiz-adv-x="1067" >
<font-face units-per-em="2048" ascent="1638" descent="-410" />
<missing-glyph horiz-adv-x="520" />
<glyph horiz-adv-x="0" />
<glyph unicode="&#xd;" horiz-adv-x="505" />
<glyph unicode=" "  horiz-adv-x="520" />
<glyph unicode="&#x09;" horiz-adv-x="520" />
<glyph unicode="&#xa0;" horiz-adv-x="520" />
<glyph unicode="!" horiz-adv-x="768" d="M233 0v255h306v-255h-306zM233 464v846h306v-846h-306z" />
<glyph unicode="&#x22;" horiz-adv-x="844" d="M169 938v466h206v-242l-77 -224h-129zM470 938v466h204v-242l-75 -224h-129z" />
<glyph unicode="#" horiz-adv-x="1071" d="M33 369v165h227l40 237h-199v165h226l62 374h178l-61 -374h145l62 374h179l-62 -374h208v-165h-235l-40 -237h206v-165h-233l-60 -369h-179l60 369h-145l-60 -369h-179l60 369h-200zM439 534h145l40 237h-145z" />
<glyph unicode="$" d="M79 393l3 6h296q0 -210 175 -210l1 -1q63 0 97 36.5t34 103.5t-33 106t-123 78q-272 108 -346 212q-60 85 -60 214q0 153 102 251.5t275 114.5v190h143v-194q164 -23 257.5 -133t90.5 -280l-2 -4h-298q0 96 -36.5 145t-100 49t-95 -38t-31.5 -101.5t33 -102.5t134 -82.5 t170.5 -82.5t123.5 -89.5t76.5 -111.5t22.5 -143q0 -155 -97.5 -251t-265.5 -113v-181h-143v182q-186 18 -296 126.5t-107 303.5z" />
<glyph unicode="%" horiz-adv-x="1369" d="M82 987v69q0 121 76.5 196t214.5 75t215 -75t77 -196v-69q0 -121 -76.5 -195t-214.5 -74t-215 74.5t-77 194.5zM276 987q0 -46 26 -75.5t71.5 -29.5t71 29.5t25.5 75.5v69q0 47 -26 77.5t-71 30.5t-71 -30.5t-26 -77.5v-69zM281 167l640 1024l141 -71l-640 -1024z M704 250v69q0 119 78 194.5t215.5 75.5t214 -74.5t76.5 -195.5v-69q0 -122 -76 -196t-214 -74t-216 74.5t-78 195.5zM899 250q0 -44 29 -75t76.5 -31t68.5 26.5t21 79.5v69q0 46 -26.5 76.5t-71.5 30.5t-71 -30.5t-26 -76.5v-69z" />
<glyph unicode="&#x26;" horiz-adv-x="1242" d="M54 351q0 100 52 173t175 163l4 1q-60 84 -87.5 151t-27.5 136q0 157 102 255t269 98q142 0 232 -90t90 -225q0 -87 -40 -162.5t-112 -127.5l-78 -54l219 -252q66 103 66 237h214q0 -265 -118 -423l198 -228l-2 -4h-332l-67 76q-151 -95 -338 -95t-303 101.5t-116 269.5z M359 372q0 -46 19.5 -82.5t52 -56t72.5 -19.5q82 0 155 33l-240 272l-8 -5q-51 -62 -51 -142zM432 977q0 -65 68 -151l54 34q49 32 67 61.5t18 70t-28.5 71t-75 30.5t-75 -32.5t-28.5 -83.5z" />
<glyph unicode="'" horiz-adv-x="544" d="M169 886v518h196v-263l-67 -255h-129z" />
<glyph unicode="(" horiz-adv-x="914" d="M238 508v25q0 171 35.5 325.5t97 269.5t142 195.5t171.5 115.5h6l55 -143q-122 -90 -193.5 -282t-71.5 -479v-29q0 -289 71 -480.5t194 -281.5l-55 -143h-6q-189 74 -317.5 320.5t-128.5 586.5z" />
<glyph unicode=")" horiz-adv-x="913" d="M170 -256q121 92 192.5 283.5t71.5 478.5v29q0 286 -72 478t-192 283l54 143h6q192 -71 329.5 -325.5t137.5 -580.5v-25q0 -165 -38 -319t-102.5 -270.5t-149 -199.5t-177.5 -118h-6z" />
<glyph unicode="*" horiz-adv-x="827" d="M23 1000l55 169l269 -117l-20 315h180l-23 -321l262 114l54 -171l-278 -81l185 -238l-145 -105l-156 264l-154 -255l-146 101l193 244z" />
<glyph unicode="+" horiz-adv-x="985" d="M41 498v260h307v342h284v-342h307v-260h-307v-352h-284v352h-307z" />
<glyph unicode="," horiz-adv-x="487" d="M50 -326l63 294v228h263v-236l-146 -286h-180z" />
<glyph unicode="-" horiz-adv-x="829" d="M137 497v235h541v-235h-541z" />
<glyph unicode="." horiz-adv-x="557" d="M122 0v256h304v-256h-304z" />
<glyph unicode="/" horiz-adv-x="647" d="M-26 -125l447 1423h216l-448 -1423h-215z" />
<glyph unicode="0" d="M77 515v276q0 262 120 399t335.5 137t336.5 -137.5t121 -398.5v-276q0 -262 -121 -399t-335.5 -137t-335.5 137t-121 399zM381 497q0 -151 37.5 -217.5t115 -66.5t115.5 67t38 217l1 315q0 147 -38.5 214t-116.5 67t-115 -66.5t-37 -214.5v-315z" />
<glyph unicode="1" d="M130 1005v215l595 91v-1311h-303v1005h-292z" />
<glyph unicode="2" d="M59 895q-5 185 119.5 309.5t333 124.5t329.5 -105.5t121 -291.5q0 -118 -57 -208.5t-244 -294.5l-178 -190l3 -5h511v-235h-917v198l421 443q156 179 156 289q0 78 -39 122t-110 44t-111 -57t-40 -149h-297z" />
<glyph unicode="3" d="M49 356l1 6h297q0 -63 49 -106t124 -43t123 44.5t48 113.5q0 183 -191 183h-143l1 224h143q82 0 126.5 43.5t44.5 115.5t-41 113t-109 41t-112 -34.5t-44 -87.5h-295l-2 5q-5 155 121 253t315 98q217 0 343 -98t126 -276q0 -89 -55 -164t-149 -117q108 -39 166.5 -117.5 t58.5 -187.5q0 -178 -135.5 -282t-354.5 -104q-127 0 -230 42t-166 129.5t-60 205.5z" />
<glyph unicode="4" d="M52 464l526 844v2h304v-798h132v-236h-132v-276h-304v276h-508zM324 512h254v403l-6 2z" />
<glyph unicode="5" d="M78 356l2 6l297 18q0 -79 43 -123t119 -44t113 55t37 150q0 232 -162 232q-115 0 -150 -91l-273 15l76 734h769v-235h-521l-34 -273q73 55 199 60q193 4 296.5 -111t103.5 -329q0 -192 -121 -316.5t-335 -124.5q-126 0 -231 46t-167.5 133t-60.5 198z" />
<glyph unicode="6" d="M72 771q0 257 150 406.5t394 149.5q77 0 136.5 -12.5t135.5 -42.5l-50 -221q-128 38 -219 38q-111 0 -174.5 -77t-61.5 -221l3 -5q86 96 257.5 96t270.5 -124t99 -323.5t-129 -327.5t-338.5 -128t-340 142t-130.5 386v264h-3zM376 507q0 -142 46 -218t129 -76 q68 0 111.5 64t43.5 159.5t-41 154.5t-109 59q-123 0 -180 -65v-78z" />
<glyph unicode="7" d="M47 1076v234h945v-235q-243 -277 -319 -587q-36 -148 -57 -362l-13 -127h-304l12 127q56 581 389 950h-653z" />
<glyph unicode="8" d="M77 359q0 103 56.5 183.5t157.5 125.5q-90 45 -138.5 119.5t-48.5 170.5q0 175 116 272t313.5 97t313.5 -97t116 -272q0 -96 -48.5 -170.5t-137.5 -119.5q101 -45 157 -125.5t56 -183.5q0 -182 -123.5 -281t-332 -99t-333 100t-124.5 280zM382 382.5q0 -78.5 41 -124 t111 -45.5t111.5 45.5t41.5 124t-42 123.5t-111.5 45t-110.5 -45t-41 -123.5zM409 941.5q0 -72.5 32.5 -114.5t93.5 -42t93 41.5t32 114t-32.5 112.5t-93.5 40t-93 -39.5t-32 -112z" />
<glyph unicode="9" d="M74 853q0 205 128.5 339.5t329.5 134.5t327.5 -144.5t126.5 -391.5v-312q0 -225 -144 -362.5t-369 -137.5q-140 0 -278 57l31 217h1q120 -40 246 -40q93 0 151 66t58 180v57q-89 -109 -226 -109q-180 0 -281 120.5t-101 325.5zM377 859h1q0 -111 36.5 -172t107.5 -61 q102 0 159 68v135q0 126 -41.5 195t-110 69t-110.5 -69t-42 -165z" />
<glyph unicode=":" horiz-adv-x="552" d="M110 0v230h273v-230h-273zM110 718v230h273v-230h-273z" />
<glyph unicode=";" horiz-adv-x="521" d="M83 -326l57 264v205h236v-212l-131 -257h-162zM98 686v230h273v-230h-273z" />
<glyph unicode="&#x3c;" horiz-adv-x="940" d="M41 376v239l796 324v-275l-497 -167v-6l497 -163v-276z" />
<glyph unicode="=" horiz-adv-x="1076" d="M115 293v234h834v-234h-834zM115 688v234h834v-234h-834z" />
<glyph unicode="&#x3e;" horiz-adv-x="940" d="M103 52v276l496 163v6l-496 167v275l795 -324v-239z" />
<glyph unicode="?" horiz-adv-x="1199" d="M146 954q-3 184 115.5 279.5t329 95.5t333.5 -107.5t123 -291.5q0 -110 -65.5 -204.5t-172.5 -150.5q-56 -38 -77 -81t-21 -120l-303 -2q1 84 21 138.5t60 95.5t125 100q130 81 130 223q0 77 -41 121.5t-109.5 44.5t-108 -38t-41.5 -108h-296zM409 -2v243h302v-243h-302z " />
<glyph unicode="@" horiz-adv-x="1628" d="M39 383q16 391 231.5 616t574.5 225l1 -1q352 0 539 -213t172 -588q-8 -204 -117 -342q-54 -68 -139.5 -106.5t-192.5 -38.5q-74 0 -126.5 41t-74.5 115q-75 -153 -226 -153q-135 0 -206 106.5t-52 283.5q23 227 131 362.5t264 135.5q103 0 168.5 -21t151.5 -75l-2 -3h4 l-46 -510q-6 -136 52 -136q99 0 160 94.5t68 246.5q15 310 -120.5 478t-410 168t-434.5 -182t-173 -502q-15 -311 130 -489t417 -178q161 0 298 59l34 -149q-59 -37 -151 -58.5t-185 -21.5q-364 0 -560 222.5t-180 613.5zM649 328q-17 -219 93 -219q51 0 88.5 28.5 t65.5 98.5l36 407q-42 11 -76 11q-93 0 -142.5 -80t-64.5 -246z" />
<glyph unicode="A" horiz-adv-x="1170" d="M6 0l423 1310h327l424 -1310h-306l-75 255h-413l-74 -255h-306zM454 489h278l-137 469h-5z" />
<glyph unicode="B" horiz-adv-x="1184" d="M103 1v1310h450q249 0 383 -91t134 -269q0 -96 -45 -168t-135 -109q112 -25 168.5 -101.5t56.5 -184.5q0 -192 -127 -290t-371 -98zM408 235h209q195 0 195 156q0 87 -42.5 130t-134.5 43h-227v-329zM408 765h151q206 4 206 152q0 84 -51 122t-161 38h-145v-312z" />
<glyph unicode="C" horiz-adv-x="1184" d="M71 516v274q0 239 146 388t386.5 149t373 -123t149.5 -357l-2 -6h-296q-6 132 -58 192t-171 60q-103 0 -163 -82t-60 -219v-276q0 -138 65.5 -220.5t176 -82.5t157 57t52.5 188h295l2 -6q-9 -232 -136.5 -352.5t-370.5 -120.5t-394.5 149t-151.5 388z" />
<glyph unicode="D" horiz-adv-x="1204" d="M103 0v1310h473q234 0 388.5 -151t154.5 -386v-236q0 -235 -154.5 -386t-388.5 -151h-473zM408 234h147q121 0 190 82.5t69 220.5v238q0 138 -69 219.5t-190 81.5h-147v-842z" />
<glyph unicode="E" horiz-adv-x="1049" d="M103 0v1310h912v-234h-607v-281h514v-234h-514v-327h605v-234h-910z" />
<glyph unicode="F" horiz-adv-x="1059" d="M103 0v1310h921v-234h-616v-315h524v-234h-524v-527h-305z" />
<glyph unicode="G" horiz-adv-x="1220" d="M79 516v274q0 238 147.5 387.5t388 149.5t369 -113t146.5 -323l-1 -6h-286q-15 107 -67.5 157.5t-158 50.5t-170 -83.5t-64.5 -217.5v-276q0 -139 64 -221t179 -82q146 0 207 50v207h-207v201h512v-492q-75 -88 -204 -144t-308 -56q-244 0 -395.5 149t-151.5 388z" />
<glyph unicode="H" horiz-adv-x="1300" d="M103 0v1310h305v-549h485v549h303v-1310h-303v527h-485v-527h-305z" />
<glyph unicode="I" horiz-adv-x="550" d="M123 0v1310h304v-1310h-304z" />
<glyph unicode="J" horiz-adv-x="1069" d="M55 385l2 5h297q0 -91 42 -134t111 -43t112.5 52.5t43.5 143.5l-1 899h304v-899q0 -196 -127.5 -313t-337 -117t-330.5 104q-116 100 -116 286v16z" />
<glyph unicode="K" horiz-adv-x="1193" d="M103 0v1310h305v-513h103l288 513h378l-406 -593l441 -717h-370l-294 526h-140v-526h-305z" />
<glyph unicode="L" horiz-adv-x="998" d="M103 0v1310h305v-1076h564v-234h-869z" />
<glyph unicode="M" horiz-adv-x="1602" d="M103 0v1310h399l294 -917h5l297 917h401v-1310h-305v325l29 598l-5 1l-316 -924h-205l-313 916l-5 -1l29 -590v-325h-305z" />
<glyph unicode="N" horiz-adv-x="1300" d="M103 0v1310h305l479 -835l6 2v833h303v-1310h-303l-480 835l-5 -2v-833h-305z" />
<glyph unicode="O" horiz-adv-x="1260" d="M73 535v236q0 160 69.5 286.5t197 198t290.5 71.5q247 0 401.5 -156t154.5 -400v-236q0 -244 -153.5 -400t-401.5 -156t-403 156t-155 400zM376 535q0 -146 67.5 -234t187 -88t186 88t66.5 234v238q0 144 -67 232t-187 88t-186.5 -87.5t-66.5 -232.5v-238z" />
<glyph unicode="P" horiz-adv-x="1210" d="M103 0v1310h532q233 0 369.5 -118t136.5 -313t-136.5 -312.5t-369.5 -117.5h-227v-449h-305zM408 683h227q97 0 149.5 53t52.5 142.5t-52.5 143.5t-149.5 54h-227v-393z" />
<glyph unicode="Q" horiz-adv-x="1306" d="M80 514v236q0 160 69.5 286.5t197 198t290.5 71.5q247 0 401.5 -156t154.5 -400v-236q0 -234 -140 -386l220 -213l-186 -150l-235 229q-99 -36 -213 -36q-249 0 -404 156t-155 400zM383 514q0 -146 67.5 -234t187 -88t186 88t66.5 234v237q0 145 -67 233t-187 88 t-186.5 -87.5t-66.5 -233.5v-237z" />
<glyph unicode="R" horiz-adv-x="1217" d="M103 2v1310h504q229 0 361.5 -105t132.5 -288q0 -201 -212 -294q118 -34 172 -112t54 -201v-82q0 -62 17 -124t52 -88v-18h-314q-58 46 -58 230v80q0 94 -49.5 143t-145.5 49l-209 2v-502h-305zM408 736h200q92 0 140.5 41.5t48.5 122t-50 128.5t-140 48h-199v-340z" />
<glyph unicode="S" horiz-adv-x="1164" d="M67 414l1 5h297q0 -111 59.5 -160.5t186.5 -49.5v-1q93 0 140 36.5t47 102.5t-43.5 103.5t-166.5 82.5q-266 83 -377 173.5t-111 254t141 265t362.5 101.5t359.5 -112q133 -108 133 -276v-12l-2 -6h-295q0 81 -53.5 129t-145 48t-144.5 -40t-53 -98t50 -93t200 -89 q234 -69 342 -167t108 -267t-133.5 -267t-358.5 -98q-152 0 -275 49q-124 48 -198 148q-72 97 -71 227v11z" />
<glyph unicode="T" horiz-adv-x="1038" d="M23 1076v234h994v-234h-346v-1076h-305v1076h-343z" />
<glyph unicode="U" horiz-adv-x="1275" d="M96 450v858h305v-858q0 -119 61.5 -178t176.5 -59q234 0 234 237v858h305v-858q0 -222 -146.5 -346.5t-394 -124.5t-394.5 124.5t-147 346.5z" />
<glyph unicode="V" horiz-adv-x="1175" d="M-1 1310h318l256 -954l9 -48h6l9 44l260 958h318l-424 -1310h-329z" />
<glyph unicode="W" horiz-adv-x="1637" d="M9 1310h295l172 -859h6l231 859h211l233 -859h5l172 859h294l-300 -1310h-287l-220 808h-6l-218 -808h-286z" />
<glyph unicode="X" horiz-adv-x="1176" d="M13 0l385 661l-375 649h348l212 -441l216 441h351l-375 -649l404 -661h-369l-223 451l-223 -451h-351z" />
<glyph unicode="Y" horiz-adv-x="1179" d="M-3 1310h329l260 -572h5l261 572h331l-446 -849v-461h-303v476z" />
<glyph unicode="Z" horiz-adv-x="1076" d="M58 1076v234h965v-131l-588 -945h596v-234h-971v137l586 939h-588z" />
<glyph unicode="[" horiz-adv-x="779" d="M227 -314v1849h411v-221h-107v-1408h107v-220h-411z" />
<glyph unicode="\" horiz-adv-x="784" d="M-14 1298h304l547 -1423h-305z" />
<glyph unicode="]" horiz-adv-x="779" d="M143 -94h107v1408h-107v221h410v-1849h-410v220z" />
<glyph unicode="^" horiz-adv-x="824" d="M32 729l270 654h224l270 -654h-229l-148 372l-4 16h-5l-4 -16l-146 -372h-228z" />
<glyph unicode="_" horiz-adv-x="814" d="M0 -25h813v-226h-813v226z" />
<glyph unicode="`" horiz-adv-x="626" d="M67 1446l1 5h313l187 -239h-248z" />
<glyph unicode="a" horiz-adv-x="977" d="M41 272q0 148 109 225.5t329 77.5h111v69q0 129 -120 129q-104 0 -104 -102l-294 1l-2 5v13q0 128 111 212q117 88 305.5 88t298.5 -91t110 -257v-367q0 -146 52 -277l-300 1q-27 52 -40 111q-95 -131 -254 -131q-140 0 -226 80t-86 213zM344 296.5q0 -49.5 28.5 -75 t73.5 -25.5q91 0 144 65v152h-108q-69 0 -103.5 -33.5t-34.5 -83z" />
<glyph unicode="b" horiz-adv-x="1036" d="M85 -2v1404h305v-525q85 113 218 113q186 0 283 -134.5t97 -372.5l-1 -19q0 -227 -96.5 -356t-281.5 -129q-155 0 -240 134l-20 -115h-264zM390 275q41 -62 135.5 -62t126.5 59t32 192v19q0 138 -34 205.5t-119 67.5q-100 0 -141 -72v-409z" />
<glyph unicode="c" horiz-adv-x="941" d="M41 474v21q0 224 121 359.5t338 135.5q186 0 296 -104q107 -101 107 -272v-9l-2 -6h-278q0 72 -31.5 114.5t-91.5 42.5q-84 0 -120 -67t-36 -194v-21q0 -129 36 -195t122 -66q121 0 121 131h278l2 -5v-8q1 -153 -109 -251q-112 -100 -292 -101q-218 0 -339.5 135 t-121.5 360z" />
<glyph unicode="d" horiz-adv-x="1036" d="M45 483q0 233 100 370t280 137q131 0 220 -120v532h305v-1404h-264l-22 120q-92 -139 -240 -139q-178 0 -278 131t-100 354zM350 464q0 -124 35.5 -187.5t115.5 -63.5q97 0 144 69v394q-49 80 -142 80q-153 0 -153 -273v-19z" />
<glyph unicode="e" horiz-adv-x="975" d="M59 453v35q0 228 119 366q118 137 328 137h3q198 0 310.5 -118t112.5 -323v-160h-556l-2 -5q10 -78 62 -125t135.5 -47t133.5 12t137 48l72 -184q-67 -49 -168.5 -79t-214.5 -30q-213 0 -342.5 133t-129.5 340zM371 585l3 -5h261v24q0 153 -126 153q-123 0 -138 -172z M914 88v1v-1z" />
<glyph unicode="f" horiz-adv-x="669" d="M11 763v211h140v101q0 168 100 258t286 90q58 0 151 -19l-23 -224q-58 9 -91 9q-57 0 -87.5 -29.5t-30.5 -84.5v-101h189v-211h-189v-763h-305v763h-140z" />
<glyph unicode="g" horiz-adv-x="1036" d="M45 441q0 233 99.5 370t279.5 137q147 0 237 -140l20 122h267v-936q0 -196 -134 -313.5t-361 -117.5q-156 0 -316 76l49 225q133 -56 266 -56q93 0 142.5 49.5t49.5 138.5v49q-84 -108 -221 -108q-178 0 -277.5 131.5t-99.5 354.5zM349 423q0 -252 151 -252q99 0 144 63 v408q-45 72 -142 72q-153 0 -153 -273v-18z" />
<glyph unicode="h" horiz-adv-x="1036" d="M77 0v1404h305v-551q93 139 247.5 139t239 -107.5t84.5 -324.5v-560h-304v562q0 108 -33 152t-111.5 44t-122.5 -50v-708h-305z" />
<glyph unicode="i" horiz-adv-x="505" d="M100 0v974h305v-974h-305zM100 1200v204h305v-204h-305z" />
<glyph unicode="j" horiz-adv-x="493" d="M-105 -422l13 230q48 -11 92 -11q104 0 104 146v987h304v-987q0 -182 -97 -281t-272 -99q-74 0 -144 15zM98 1157v203h305v-203h-305z" />
<glyph unicode="k" horiz-adv-x="1007" d="M86 0v1404h305v-787h40l208 357h348l-302 -440l350 -534h-346l-247 387h-51v-387h-305z" />
<glyph unicode="l" horiz-adv-x="505" d="M100 0v1404h305v-1404h-305z" />
<glyph unicode="m" horiz-adv-x="1588" d="M86 0v974h286l10 -129q97 147 282 147t250 -160q94 160 281 160q146 0 225.5 -99.5t79.5 -299.5v-593h-305v593q0 92 -28 128.5t-89 36.5q-84 0 -135 -60l2 -48v-650h-304v593q0 92 -28 128.5t-90 36.5q-83 0 -132 -60v-698h-305z" />
<glyph unicode="n" horiz-adv-x="1036" d="M81 0v974h285l12 -137q101 155 275 155q304 0 304 -388v-604h-304v605q0 82 -33.5 117.5t-108.5 35.5t-127 -58v-700h-303z" />
<glyph unicode="o" horiz-adv-x="1036" d="M46 475v19q0 224 125 360t346 136t346 -136t125 -360v-19q0 -225 -125 -360.5t-346 -135.5t-346 135t-125 361zM350 475q0 -262 167.5 -262t167.5 262v19q0 262 -167.5 262t-167.5 -262v-19z" />
<glyph unicode="p" horiz-adv-x="1036" d="M87 -416v1348h285l11 -107q86 125 226 125q180 0 280 -137t100 -369l1 -19q0 -224 -99.5 -354.5t-278.5 -130.5q-137 0 -220 105v-461h-305zM391 236q40 -62 145 -62q149 0 149 251l1 19q0 272 -151 272q-102 0 -144 -74v-406z" />
<glyph unicode="q" horiz-adv-x="1036" d="M46 425v19q0 232 100 369t280 137q149 0 236 -140l25 122h263v-1348h-304v464q-84 -108 -222 -108q-178 0 -278 131t-100 354zM350 444l1 -19q0 -124 35.5 -187.5t115.5 -63.5q102 0 144 63v405q-45 74 -143 74q-153 0 -153 -272z" />
<glyph unicode="r" horiz-adv-x="681" d="M85 0v974h287l10 -143q66 161 200 161q48 0 84 -11l-31 -275l-110 1q-102 0 -135 -68v-639h-305z" />
<glyph unicode="s" horiz-adv-x="943" d="M37 305l2 5h275q4 -130 156 -130v1q124 0 124 92q0 38 -42.5 65.5t-147.5 49.5q-174 34 -258.5 104t-84.5 196.5t109.5 214t297.5 87.5t304 -86q110 -82 109 -212v-14l-2 -5h-295q0 59 -29.5 88t-86 29t-88.5 -26t-32 -67t40 -67t148 -47q183 -36 267 -106t84 -200 t-117 -214t-309 -84q-193 0 -311 98q-114 94 -113 218v10z" />
<glyph unicode="t" horiz-adv-x="668" d="M6 761v211h137v242h303v-242h165v-211h-165v-446q0 -98 79 -98q49 0 88 9l22 -225q-93 -22 -187 -22q-153 0 -229 81t-76 253v448h-137z" />
<glyph unicode="u" horiz-adv-x="1036" d="M78 378v594h304v-596q0 -163 119 -163q97 0 150 54v705h304v-974h-266l-19 115q-97 -134 -269 -134q-155 0 -239 98.5t-84 300.5z" />
<glyph unicode="v" horiz-adv-x="948" d="M0 974h320l131 -573l18 -103l5 -1l20 104l129 573h319l-316 -974h-309z" />
<glyph unicode="w" horiz-adv-x="1337" d="M19 974h281l107 -569h5l159 569h191l161 -564h5l105 564h281l-229 -974h-257l-158 517h-6l-159 -517h-257z" />
<glyph unicode="x" horiz-adv-x="948" d="M5 0l292 492l-283 482h339l119 -287h5l123 287h341l-282 -482l292 -492h-341l-129 296h-6l-129 -296h-341z" />
<glyph unicode="y" horiz-adv-x="948" d="M-5 930h324l147 -544v-8h6l161 552h324l-388 -1119q-64 -153 -149 -203q-77 -45 -193 -45h-21q-8 0 -19 1.5t-16 2t-19 3.5t-18 4t-24 5.5t-27 6.5l37 217q28 -5 34 -5q70 0 104 20t50 65l24 63z" />
<glyph unicode="z" horiz-adv-x="948" d="M59 0v169l432 571h-414v234h800v-164l-434 -576h443v-234h-827z" />
<glyph unicode="{" horiz-adv-x="858" d="M166 453v205q146 0 146 177v183q0 161 76.5 265.5t247.5 152.5l56 -158q-63 -25 -90 -89.5t-27 -170.5v-183q0 -198 -167 -279q167 -83 167 -278v-183q0 -105 27 -170t90 -90l-56 -160q-171 48 -247.5 153t-76.5 266v183q0 85 -36.5 130.5t-109.5 45.5z" />
<glyph unicode="|" horiz-adv-x="731" d="M285 -243v1553h165v-1553h-165z" />
<glyph unicode="}" horiz-adv-x="858" d="M167 -165q118 47 118 260v183q0 198 167 279q-167 81 -167 279v183q0 213 -118 260l57 158q170 -48 247 -153t77 -265v-183q0 -177 145 -177v-205q-145 0 -145 -176v-183q0 -160 -77.5 -265.5t-246.5 -153.5z" />
<glyph unicode="~" horiz-adv-x="1166" d="M84 428q0 160 78 260.5t204 100.5q144 0 273 -116q40 -39 69.5 -55t66.5 -16t65.5 45t28.5 110l208 -28q0 -159 -79.5 -260.5t-203.5 -101.5q-76 0 -140 27.5t-119 78.5t-84 66.5t-67 15.5t-65 -44.5t-27 -109.5z" />
<glyph unicode="&#xa1;" horiz-adv-x="554" d="M111 802.5q0 66.5 48 109.5t120 43t120 -43t48 -109.5t-47.5 -109.5t-120.5 -43t-120.5 43t-47.5 109.5zM115 -372l39 896h246l38 -896h-323z" />
<glyph unicode="&#xa2;" horiz-adv-x="1088" d="M87 455v16q0 204 98 334.5t274 155.5v201h180v-203q150 -26 233.5 -126.5t83.5 -255.5h-285q0 75 -36 116t-99 41q-119 0 -138 -151q-6 -48 -6 -131h-2q0 -145 34 -202.5t105 -57.5t106.5 34.5t34.5 96.5h285q0 -140 -86.5 -236t-230.5 -122v-211h-180v209 q-176 26 -273.5 154.5t-97.5 337.5z" />
<glyph unicode="&#xa3;" horiz-adv-x="1106" d="M93 505v235h138l-5 195q0 185 109 289t305 104t309 -102.5t113 -282.5h-297q0 142 -122 142q-48 0 -75 -37.5t-27 -112.5l8 -195h276v-235h-266l4 -101q0 -104 -53 -161h548v-243h-963v243h93q53 14 54 93l1 47l-4 122h-146z" />
<glyph unicode="&#xa4;" horiz-adv-x="1257" d="M60 104l122 123q-90 141 -90 322t98 324l-130 132l127 130l128 -131q140 104 314 104t315 -105l130 133l128 -131l-134 -136q97 -144 97 -321t-89 -318l126 -126l-128 -131l-121 121q-142 -115 -325 -115t-325 114l-116 -119zM259 545q0 -106 48.5 -196.5t134.5 -142.5 q83 -52 185 -52t187 52t133.5 142.5t48.5 197t-48.5 196.5t-136 141.5t-186 51.5t-183.5 -51t-134 -142v1q-49 -92 -49 -198z" />
<glyph unicode="&#xa5;" horiz-adv-x="1133" d="M14 1310h342l214 -518l212 518h341l-325 -642h183v-171h-258v-90h258v-170h-258v-237h-314v237h-287v170h287v90h-287v171h218z" />
<glyph unicode="&#xa6;" horiz-adv-x="472" d="M107 -270v716h263v-716h-263zM107 601v682h263v-682h-263z" />
<glyph unicode="&#xa7;" horiz-adv-x="1171" d="M84 -68h304q0 -69 46 -102.5t148 -33.5q174 0 174 102q0 54 -52 86t-211.5 76.5t-242.5 93t-125 117.5q-41 64 -41 159q0 158 141 244q-127 93 -127 256.5t130.5 258.5t354 95t349.5 -100.5t126 -282.5h-303q0 69 -46.5 109t-130 40t-129 -29.5t-45.5 -85t48 -85.5 t182.5 -65.5t211.5 -68.5t127 -77l-1 -1q103 -89 103 -234q0 -160 -139 -241q124 -93 124 -258t-126.5 -254.5t-360 -89.5t-361.5 95.5t-128 275.5zM387 467q0 -44 16 -69t64 -48.5t153 -55.5l106 -31q52 41 52 103t-49.5 97t-191.5 79q-38 9 -106 33q-44 -36 -44 -108z" />
<glyph unicode="&#xa8;" horiz-adv-x="912" d="M84 1351.5q0 50.5 39 85t96 34.5t96.5 -34.5t39.5 -84.5t-39.5 -85t-96.5 -35t-96 34.5t-39 85zM551 1351.5q0 50.5 39 85t96 34.5t96.5 -34.5t39.5 -84.5t-39.5 -85t-96.5 -35t-96 34.5t-39 85z" />
<glyph unicode="&#xa9;" horiz-adv-x="1447" d="M77 654q0 187 84.5 341.5t231 242.5t322.5 88t323 -88t232 -242.5t85 -341.5q0 -140 -50.5 -265.5t-136 -215t-203.5 -142t-249.5 -52.5t-250 52.5t-203.5 142t-135 215t-50 265.5zM186 654q0 -157 70.5 -286t192 -202.5t267 -73.5t266.5 73.5t191.5 202.5t70.5 285.5 t-70.5 285.5t-191.5 202t-266 73q-110 0 -208 -43t-168.5 -117.5t-112 -178.5t-41.5 -221zM389 600v107q0 158 85 253t228.5 95t222.5 -71.5t75 -205.5l-2 -5h-133q0 84 -39.5 122.5t-123 38.5t-129 -60.5t-45.5 -165.5v-108q0 -105 45.5 -166t129 -61t122.5 38t39 123h133 l2 -5q4 -135 -74 -206t-222 -71t-229 95t-85 253z" />
<glyph unicode="&#xaa;" horiz-adv-x="814" d="M120 896q0 208 307 208h91v46q0 114 -104 114q-59 0 -91.5 -23t-32.5 -66l-156 13q0 93 78.5 151.5t201.5 58.5t192.5 -65t69.5 -185v-284q0 -86 23 -160l-159 1q-11 35 -15 60q-70 -74 -178.5 -74t-167.5 55t-59 150zM277 900q0 -79 106 -79q35 0 72.5 16t62.5 39v123 h-95q-68 -1 -107 -27.5t-39 -71.5z" />
<glyph unicode="&#xab;" horiz-adv-x="949" d="M49 467v17l245 351h185l-208 -360l208 -359h-185zM462 467v17l245 351h185l-208 -360l208 -359h-185z" />
<glyph unicode="&#xac;" horiz-adv-x="1012" d="M113 608v154h751v-388h-180v234h-571z" />
<glyph unicode="&#xad;" horiz-adv-x="829" d="M123 497v235h541v-235h-541z" />
<glyph unicode="&#xae;" horiz-adv-x="1447" d="M76 655q0 183 84 338t233 245q150 89 322 89t322 -89q150 -91 234 -246t84 -338.5t-85 -339.5t-234.5 -245t-321.5 -89t-319.5 89.5t-233.5 246.5l-1 -1q-84 157 -84 340zM185 654q0 -152 67.5 -280t189.5 -205.5t271.5 -77.5t272 76t190.5 206.5t68 279.5t-68 278.5 t-191.5 205.5t-269 76t-267 -73.5t-192.5 -203.5v-1q-71 -129 -71 -281zM449 282v765h253q139 0 215.5 -62.5t76.5 -174.5q0 -99 -96 -153q51 -28 72.5 -77.5t21.5 -148.5t15 -134v-15h-139q-12 32 -12 174q0 68 -30 98.5t-99 30.5l-142 1v-304h-136zM585 705h115 q70 0 114.5 29t44.5 76q0 64 -31.5 89.5t-115.5 26.5h-127v-221z" />
<glyph unicode="&#xaf;" horiz-adv-x="959" d="M145 1285v156h661v-156h-661z" />
<glyph unicode="&#xb0;" horiz-adv-x="732" d="M113 1168q0 105 74 178.5t177 73.5t176 -73.5t73 -178.5t-72 -177.5t-176.5 -72.5t-178 72.5t-73.5 177.5zM252 1167.5q0 -47.5 33.5 -79.5t80 -32t77.5 32t31 79.5t-31 81.5t-78 34t-80 -34t-33 -81.5z" />
<glyph unicode="&#xb1;" horiz-adv-x="992" d="M76 633v244h279v287h264v-287h281v-244h-281v-313h-264v313h-279zM91 1v238h790v-238h-790z" />
<glyph unicode="&#xb4;" horiz-adv-x="622" d="M81 1222l177 283h321l-250 -283h-248z" />
<glyph unicode="&#xb5;" horiz-adv-x="1182" d="M119 -416v1348h306v-569q1 -99 33.5 -142.5t113.5 -43.5q114 0 162 82v673h303v-974h-285l-5 48q-81 -66 -190 -66q-75 0 -134 30v-386h-304z" />
<glyph unicode="&#xb6;" horiz-adv-x="901" d="M74 889q0 194 119.5 307.5t326.5 113.5h277v-1310h-206v468h-72q-207 0 -326 113.5t-119 307.5z" />
<glyph unicode="&#xb7;" horiz-adv-x="591" d="M124 668.5q0 66.5 47.5 109t120.5 42.5t120 -43t47 -109t-47 -109t-119.5 -43t-120.5 43t-48 109.5z" />
<glyph unicode="&#xb8;" horiz-adv-x="512" d="M77 -170l28 132l231 -1l-9 -55q135 -26 135 -155q0 -105 -89 -164t-248 -59l-6 167q79 0 79 70q0 34 -27 47.5t-94 17.5z" />
<glyph unicode="&#xba;" horiz-adv-x="844" d="M105 1013v65q0 145 85.5 232t226.5 87t226.5 -87.5t85.5 -236.5v-64q0 -144 -84.5 -231.5t-227 -87.5t-227.5 87.5t-85 235.5zM263 1009q0 -89 41.5 -138.5t113.5 -49.5t112.5 49t41.5 136v72q0 87 -41.5 136.5t-113.5 49.5t-113 -49.5t-41 -140.5v-65z" />
<glyph unicode="&#xbb;" horiz-adv-x="949" d="M61 115l209 359l-209 360h187l245 -351v-17l-245 -351h-187zM474 115l209 359l-209 360h187l245 -351v-17l-245 -351h-187z" />
<glyph unicode="&#xbc;" horiz-adv-x="1307" d="M274 188l639 1024l142 -71l-640 -1024z" />
<glyph unicode="&#xbd;" horiz-adv-x="1383" d="M238 188l639 1024l142 -71l-640 -1024z" />
<glyph unicode="&#xbe;" horiz-adv-x="1520" d="M437 188l639 1024l142 -71l-640 -1024z" />
<glyph unicode="&#xbf;" horiz-adv-x="939" d="M66 -30q0 77 34.5 142.5t116.5 143.5l76 70q71 60 78 138l4 65l258 -1q0 -133 -26.5 -205.5t-93.5 -129.5l-59 -55q-84 -82 -84 -168q0 -62 29 -92t84 -30t89 38t36 109h305q-4 -183 -114.5 -282t-313 -99t-311 92.5t-108.5 263.5zM344 802.5q0 66.5 47.5 109t121 42.5 t120.5 -43t47 -109t-47 -109t-120 -43t-121 43t-48 109.5z" />
<glyph unicode="&#xc0;" horiz-adv-x="1256" d="M6 0l423 1310h327l424 -1310h-306l-75 255h-413l-74 -255h-306zM317 1756l1 5h313l187 -239h-248zM454 489h278l-137 469h-5z" />
<glyph unicode="&#xc1;" horiz-adv-x="1256" d="M6 0l423 1310h327l424 -1310h-306l-75 255h-413l-74 -255h-306zM454 489h278l-137 469h-5zM536 1532l177 283h321l-250 -283h-248z" />
<glyph unicode="&#xc2;" horiz-adv-x="1256" d="M6 0l423 1310h327l424 -1310h-306l-75 255h-413l-74 -255h-306zM270 1552v15l291 250h174l295 -253v-12h-239l-144 122l-143 -122h-234zM454 489h278l-137 469h-5z" />
<glyph unicode="&#xc3;" horiz-adv-x="1256" d="M6 0l423 1310h327l424 -1310h-306l-75 255h-413l-74 -255h-306zM302 1567q0 101 60 173.5t147 72.5q36 0 122 -35t94.5 -37.5t36.5 -2.5t47.5 20.5t19.5 60.5l168 -10q0 -103 -60 -174.5t-148 -71.5q-43 0 -133 38t-118.5 38t-48 -21t-19.5 -60zM454 489h278l-137 469h-5 z" />
<glyph unicode="&#xc4;" horiz-adv-x="1256" d="M6 0l423 1310h327l424 -1310h-306l-75 255h-413l-74 -255h-306zM276 1661.5q0 50.5 39 85t96 34.5t96.5 -34.5t39.5 -84.5t-39.5 -85t-96.5 -35t-96 34.5t-39 85zM454 489h278l-137 469h-5zM743 1661.5q0 50.5 39 85t96 34.5t96.5 -34.5t39.5 -84.5t-39.5 -85t-96.5 -35 t-96 34.5t-39 85z" />
<glyph unicode="&#xc5;" horiz-adv-x="1256" d="M6 0l423 1310h327l424 -1310h-306l-75 255h-413l-74 -255h-306zM454 489h278l-137 469h-5zM465 1709.5q0 77.5 58.5 130t143.5 52.5t143.5 -52.5t58.5 -129.5t-57.5 -128.5t-144.5 -51.5t-144.5 51t-57.5 128.5zM574 1710q0 -41 25.5 -67.5t68 -26.5t67.5 26.5t25 67.5 t-25 68t-67.5 27t-68 -27t-25.5 -68z" />
<glyph unicode="&#xc6;" horiz-adv-x="1733" d="M14 0l662 1310h935v-237h-494l12 -285h409v-237h-399l13 -313h514v-238h-807l-13 296h-344l-137 -296h-351zM615 539h221l-19 438z" />
<glyph unicode="&#xc7;" horiz-adv-x="1210" d="M64 516v274q0 239 146 388t386.5 149t373 -123t149.5 -357l-2 -6h-296q-6 132 -58 192t-171 60q-103 0 -163 -82t-60 -219v-276q0 -138 65.5 -220.5t176 -82.5t157 57t52.5 188h295l2 -6q-9 -232 -136.5 -352.5t-370.5 -120.5t-394.5 149t-151.5 388zM514 -170l28 132 l231 -1l-9 -55q135 -26 135 -155q0 -105 -89 -164t-248 -59l-6 167q79 0 79 70q0 34 -27 47.5t-94 17.5z" />
<glyph unicode="&#xc8;" horiz-adv-x="1031" d="M93 0v1310h912v-234h-607v-281h514v-234h-514v-327h605v-234h-910zM251 1756l1 5h313l187 -239h-248z" />
<glyph unicode="&#xc9;" horiz-adv-x="1031" d="M93 0v1310h912v-234h-607v-281h514v-234h-514v-327h605v-234h-910zM470 1532l177 283h321l-250 -283h-248z" />
<glyph unicode="&#xca;" horiz-adv-x="1031" d="M93 0v1310h912v-234h-607v-281h514v-234h-514v-327h605v-234h-910zM204 1552v15l291 250h174l295 -253v-12h-239l-144 122l-143 -122h-234z" />
<glyph unicode="&#xcb;" horiz-adv-x="1031" d="M93 0v1310h912v-234h-607v-281h514v-234h-514v-327h605v-234h-910zM210 1661.5q0 50.5 39 85t96 34.5t96.5 -34.5t39.5 -84.5t-39.5 -85t-96.5 -35t-96 34.5t-39 85zM677 1661.5q0 50.5 39 85t96 34.5t96.5 -34.5t39.5 -84.5t-39.5 -85t-96.5 -35t-96 34.5t-39 85z" />
<glyph unicode="&#xcc;" horiz-adv-x="556" d="M-64 1756l1 5h313l187 -239h-248zM132 0v1310h304v-1310h-304z" />
<glyph unicode="&#xcd;" horiz-adv-x="556" d="M111 0v1310h304v-1310h-304zM133 1532l177 283h321l-250 -283h-248z" />
<glyph unicode="&#xce;" horiz-adv-x="556" d="M-109 1552v15l291 250h174l295 -253v-12h-239l-144 122l-143 -122h-234zM134 0v1310h304v-1310h-304z" />
<glyph unicode="&#xcf;" horiz-adv-x="556" d="M-104 1661.5q0 50.5 39 85t96 34.5t96.5 -34.5t39.5 -84.5t-39.5 -85t-96.5 -35t-96 34.5t-39 85zM134 0v1310h304v-1310h-304zM363 1661.5q0 50.5 39 85t96 34.5t96.5 -34.5t39.5 -84.5t-39.5 -85t-96.5 -35t-96 34.5t-39 85z" />
<glyph unicode="&#xd0;" horiz-adv-x="1219" d="M-26 572v171h153v567h422q175 0 312.5 -78t215 -220.5t79.5 -323.5v-61q0 -181 -75.5 -322.5t-214.5 -223t-309 -81.5h-430v572h-153zM443 243h110q137 0 209 97t72 287v57q0 383 -285 383h-106v-324h188v-171h-188v-329z" />
<glyph unicode="&#xd1;" horiz-adv-x="1294" d="M92 0v1310h305l479 -835l6 2v833h303v-1310h-303l-480 835l-5 -2v-833h-305zM318 1567q0 101 60 173.5t147 72.5q36 0 122 -35t94.5 -37.5t36.5 -2.5t47.5 20.5t19.5 60.5l168 -10q0 -103 -60 -174.5t-148 -71.5q-43 0 -133 38t-118.5 38t-48 -21t-19.5 -60z" />
<glyph unicode="&#xd2;" horiz-adv-x="1273" d="M67 535v236q0 160 69.5 286.5t197 198t290.5 71.5q247 0 401.5 -156t154.5 -400v-236q0 -244 -153.5 -400t-401.5 -156t-403 156t-155 400zM316 1756l1 5h313l187 -239h-248zM370 535q0 -146 67.5 -234t187 -88t186 88t66.5 234v238q0 144 -67 232t-187 88t-186.5 -87.5 t-66.5 -232.5v-238z" />
<glyph unicode="&#xd3;" horiz-adv-x="1273" d="M66 535v236q0 160 69.5 286.5t197 198t290.5 71.5q247 0 401.5 -156t154.5 -400v-236q0 -244 -153.5 -400t-401.5 -156t-403 156t-155 400zM369 535q0 -146 67.5 -234t187 -88t186 88t66.5 234v238q0 144 -67 232t-187 88t-186.5 -87.5t-66.5 -232.5v-238zM534 1532 l177 283h321l-250 -283h-248z" />
<glyph unicode="&#xd4;" horiz-adv-x="1273" d="M66 535v236q0 160 69.5 286.5t197 198t290.5 71.5q247 0 401.5 -156t154.5 -400v-236q0 -244 -153.5 -400t-401.5 -156t-403 156t-155 400zM268 1552v15l291 250h174l295 -253v-12h-239l-144 122l-143 -122h-234zM369 535q0 -146 67.5 -234t187 -88t186 88t66.5 234v238 q0 144 -67 232t-187 88t-186.5 -87.5t-66.5 -232.5v-238z" />
<glyph unicode="&#xd5;" horiz-adv-x="1273" d="M66 535v236q0 160 69.5 286.5t197 198t290.5 71.5q247 0 401.5 -156t154.5 -400v-236q0 -244 -153.5 -400t-401.5 -156t-403 156t-155 400zM300 1567q0 101 60 173.5t147 72.5q36 0 122 -35t94.5 -37.5t36.5 -2.5t47.5 20.5t19.5 60.5l168 -10q0 -103 -60 -174.5 t-148 -71.5q-43 0 -133 38t-118.5 38t-48 -21t-19.5 -60zM369 535q0 -146 67.5 -234t187 -88t186 88t66.5 234v238q0 144 -67 232t-187 88t-186.5 -87.5t-66.5 -232.5v-238z" />
<glyph unicode="&#xd6;" horiz-adv-x="1273" d="M66 535v236q0 160 69.5 286.5t197 198t290.5 71.5q247 0 401.5 -156t154.5 -400v-236q0 -244 -153.5 -400t-401.5 -156t-403 156t-155 400zM274 1661.5q0 50.5 39 85t96 34.5t96.5 -34.5t39.5 -84.5t-39.5 -85t-96.5 -35t-96 34.5t-39 85zM369 535q0 -146 67.5 -234 t187 -88t186 88t66.5 234v238q0 144 -67 232t-187 88t-186.5 -87.5t-66.5 -232.5v-238zM741 1661.5q0 50.5 39 85t96 34.5t96.5 -34.5t39.5 -84.5t-39.5 -85t-96.5 -35t-96 34.5t-39 85z" />
<glyph unicode="&#xd7;" horiz-adv-x="975" d="M48 363l269 274l-269 276l173 164l264 -269l264 269l174 -164l-270 -276l270 -274l-174 -165l-264 268l-264 -268z" />
<glyph unicode="&#xd8;" horiz-adv-x="1268" d="M73 627v46q0 194 70 340.5t201 226.5t301 80q142 0 259 -58l55 96h187l-109 -190q182 -181 182 -503v-45q0 -193 -71 -340t-203 -227q-129 -80 -298 -80q-143 0 -263 59l-73 -126h-186l127 221q-179 176 -179 500zM393 619q0 -120 25 -205l354 619q-55 38 -127 38 q-250 0 -252 -392v-60zM515 260q53 -41 132 -41q121 0 185 101t65 293v61q0 117 -26 206z" />
<glyph unicode="&#xd9;" horiz-adv-x="1225" d="M86 450v858h305v-858q0 -119 61.5 -178t176.5 -59q234 0 234 237v858h305v-858q0 -222 -146.5 -346.5t-394 -124.5t-394.5 124.5t-147 346.5zM283 1756l1 5h313l187 -239h-248z" />
<glyph unicode="&#xda;" horiz-adv-x="1225" d="M85 450v858h305v-858q0 -119 61.5 -178t176.5 -59q234 0 234 237v858h305v-858q0 -222 -146.5 -346.5t-394 -124.5t-394.5 124.5t-147 346.5zM501 1532l177 283h321l-250 -283h-248z" />
<glyph unicode="&#xdb;" horiz-adv-x="1225" d="M85 450v858h305v-858q0 -119 61.5 -178t176.5 -59q234 0 234 237v858h305v-858q0 -222 -146.5 -346.5t-394 -124.5t-394.5 124.5t-147 346.5zM235 1552v15l291 250h174l295 -253v-12h-239l-144 122l-143 -122h-234z" />
<glyph unicode="&#xdc;" horiz-adv-x="1225" d="M85 450v858h305v-858q0 -119 61.5 -178t176.5 -59q234 0 234 237v858h305v-858q0 -222 -146.5 -346.5t-394 -124.5t-394.5 124.5t-147 346.5zM241 1661.5q0 50.5 39 85t96 34.5t96.5 -34.5t39.5 -84.5t-39.5 -85t-96.5 -35t-96 34.5t-39 85zM708 1661.5q0 50.5 39 85 t96 34.5t96.5 -34.5t39.5 -84.5t-39.5 -85t-96.5 -35t-96 34.5t-39 85z" />
<glyph unicode="&#xdd;" horiz-adv-x="1157" d="M-3 1310h329l260 -572h5l261 572h331l-446 -849v-461h-303v476zM480 1532l177 283h321l-250 -283h-248z" />
<glyph unicode="&#xde;" horiz-adv-x="1139" d="M104 0v1310h306v-232h184q154 -1 267 -51.5t172.5 -145.5t59.5 -217q0 -189 -133.5 -300.5t-365.5 -113.5h-184v-250h-306zM410 484h178q93 0 146.5 47t53.5 132t-53 133t-145 48h-180v-360z" />
<glyph unicode="&#xdf;" horiz-adv-x="1197" d="M120 0v989q0 200 119.5 308t342.5 108q179 0 288.5 -93.5t109.5 -248.5q0 -54 -21 -110t-42.5 -107.5t-21.5 -87t22 -65t98 -104.5q129 -123 129 -259q0 -169 -111 -259t-318 -90q-70 0 -137.5 12.5t-104.5 33.5l54 228q76 -40 189 -40q56 0 91 30t35 75t-23 77.5t-94 94 t-102 118t-31 123t42.5 169t42.5 151t-36 83t-96.5 34.5t-90 -45.5t-29.5 -141.5l-1 -983h-304z" />
<glyph unicode="&#xe0;" horiz-adv-x="978" d="M37 272q0 148 109 225.5t329 77.5h111v69q0 129 -120 129q-104 0 -104 -102l-294 1l-2 5q-6 136 111 224.5t305.5 88.5t298.5 -91t110 -257v-367q0 -146 52 -277l-300 1q-27 52 -40 111q-95 -131 -254 -131q-140 0 -226 80t-86 213zM148 1446l1 5h313l187 -239h-248z M340 296.5q0 -49.5 28.5 -75t73.5 -25.5q91 0 144 65v152h-108q-69 0 -103.5 -33.5t-34.5 -83z" />
<glyph unicode="&#xe1;" horiz-adv-x="978" d="M37 272q0 148 109 225.5t329 77.5h111v69q0 129 -120 129q-104 0 -104 -102l-294 1l-2 5q-6 136 111 224.5t305.5 88.5t298.5 -91t110 -257v-367q0 -146 52 -277l-300 1q-27 52 -40 111q-95 -131 -254 -131q-140 0 -226 80t-86 213zM340 296.5q0 -49.5 28.5 -75 t73.5 -25.5q91 0 144 65v152h-108q-69 0 -103.5 -33.5t-34.5 -83zM367 1222l177 283h321l-250 -283h-248z" />
<glyph unicode="&#xe2;" horiz-adv-x="978" d="M37 272q0 148 109 225.5t329 77.5h111v69q0 129 -120 129q-104 0 -104 -102l-294 1l-2 5q-6 136 111 224.5t305.5 88.5t298.5 -91t110 -257v-367q0 -146 52 -277l-300 1q-27 52 -40 111q-95 -131 -254 -131q-140 0 -226 80t-86 213zM101 1242v15l291 250h174l295 -253 v-12h-239l-144 122l-143 -122h-234zM340 296.5q0 -49.5 28.5 -75t73.5 -25.5q91 0 144 65v152h-108q-69 0 -103.5 -33.5t-34.5 -83z" />
<glyph unicode="&#xe3;" horiz-adv-x="978" d="M37 272q0 148 109 225.5t329 77.5h111v69q0 129 -120 129q-104 0 -104 -102l-294 1l-2 5q-6 136 111 224.5t305.5 88.5t298.5 -91t110 -257v-367q0 -146 52 -277l-300 1q-27 52 -40 111q-95 -131 -254 -131q-140 0 -226 80t-86 213zM133 1258q0 101 60 173.5t147 72.5 q36 0 122 -35t94.5 -37.5t36.5 -2.5t47.5 20.5t19.5 60.5l168 -10q0 -103 -60 -174.5t-148 -71.5q-42 0 -132 38t-119 38t-48.5 -21t-19.5 -60zM340 296.5q0 -49.5 28.5 -75t73.5 -25.5q91 0 144 65v152h-108q-69 0 -103.5 -33.5t-34.5 -83z" />
<glyph unicode="&#xe4;" horiz-adv-x="978" d="M37 272q0 148 109 225.5t329 77.5h111v69q0 129 -120 129q-104 0 -104 -102l-294 1l-2 5q-6 136 111 224.5t305.5 88.5t298.5 -91t110 -257v-367q0 -146 52 -277l-300 1q-27 52 -40 111q-95 -131 -254 -131q-140 0 -226 80t-86 213zM107 1351.5q0 50.5 39 85t96 34.5 t96.5 -34.5t39.5 -84.5t-39.5 -85t-96.5 -35t-96 34.5t-39 85zM340 296.5q0 -49.5 28.5 -75t73.5 -25.5q91 0 144 65v152h-108q-69 0 -103.5 -33.5t-34.5 -83zM574 1351.5q0 50.5 39 85t96 34.5t96.5 -34.5t39.5 -84.5t-39.5 -85t-96.5 -35t-96 34.5t-39 85z" />
<glyph unicode="&#xe5;" horiz-adv-x="978" d="M36 272q0 148 109 225.5t329 77.5h111v69q0 129 -120 129q-104 0 -104 -102l-294 1l-2 5q-6 136 111 224.5t305.5 88.5t298.5 -91t110 -257v-367q0 -146 52 -277l-300 1q-27 52 -40 111q-95 -131 -254 -131q-140 0 -226 80t-86 213zM296 1399.5q0 77.5 58.5 130 t143.5 52.5t143.5 -52.5t58.5 -129.5t-57.5 -128.5t-144.5 -51.5t-144.5 51t-57.5 128.5zM339 296.5q0 -49.5 28.5 -75t73.5 -25.5q91 0 144 65v152h-108q-69 0 -103.5 -33.5t-34.5 -83zM405 1400q0 -41 25.5 -67.5t68 -26.5t67.5 26.5t25 67.5t-25 68t-67.5 27t-68 -27 t-25.5 -68z" />
<glyph unicode="&#xe6;" horiz-adv-x="1557" d="M56 290q0 145 117 221t346 77h127v41q0 60 -30.5 93.5t-91 33.5t-96 -26t-35.5 -66l-303 17q0 137 120.5 223t311.5 86t295 -82q113 83 288 82q192 0 302.5 -119.5t110.5 -324.5v-156h-576q25 -176 214 -176q113 0 200 36l56 24l73 -185q-61 -47 -163.5 -77.5 t-206.5 -30.5q-218 0 -342 121q-58 -59 -146 -90t-190 -31q-180 0 -280.5 82t-100.5 227zM359 287q0 -97 135 -97q82 0 152 57v158h-125q-71 -1 -116.5 -33.5t-45.5 -84.5zM943 580h278v24q0 74 -29.5 113.5t-94.5 39.5q-135 0 -154 -177zM1485 89l1 1q-1 0 -1 -1z" />
<glyph unicode="&#xe7;" horiz-adv-x="958" d="M36 474v21q0 224 121 359.5t338 135.5q187 0 296.5 -103.5t106.5 -281.5l-2 -6h-278q0 72 -31.5 114.5t-91.5 42.5q-84 0 -120 -67t-36 -194v-21q0 -129 36 -195t122 -66q121 0 121 131h278l2 -5q3 -159 -109.5 -259.5t-291.5 -100.5q-218 0 -339.5 135t-121.5 360z M397 -170l28 132l231 -1l-9 -55q135 -26 135 -155q0 -105 -89 -164t-248 -59l-6 167q79 0 79 70q0 34 -27 47.5t-94 17.5z" />
<glyph unicode="&#xe8;" horiz-adv-x="1004" d="M53 453v35q0 228 119 366t331 137q198 0 310.5 -118t112.5 -323v-160h-556l-2 -5q10 -78 62 -125t135.5 -47t133.5 12t137 48l72 -184q-67 -49 -168.5 -79t-214.5 -30q-213 0 -342.5 133t-129.5 340zM145 1447l1 5h313l187 -239h-248zM365 585l3 -5h261v24 q0 153 -126 153q-123 0 -138 -172zM908 88v1v-1z" />
<glyph unicode="&#xe9;" horiz-adv-x="1004" d="M53 453v35q0 228 119 366t331 137q198 0 310.5 -118t112.5 -323v-160h-556l-2 -5q10 -78 62 -125t135.5 -47t133.5 12t137 48l72 -184q-67 -49 -168.5 -79t-214.5 -30q-213 0 -342.5 133t-129.5 340zM364 1223l177 283h321l-250 -283h-248zM365 585l3 -5h261v24 q0 153 -126 153q-123 0 -138 -172zM908 88v1v-1z" />
<glyph unicode="&#xea;" horiz-adv-x="1004" d="M53 453v35q0 228 119 366t331 137q198 0 310.5 -118t112.5 -323v-160h-556l-2 -5q10 -78 62 -125t135.5 -47t133.5 12t137 48l72 -184q-67 -49 -168.5 -79t-214.5 -30q-213 0 -342.5 133t-129.5 340zM98 1243v15l291 250h174l295 -253v-12h-239l-144 122l-143 -122h-234z M365 585l3 -5h261v24q0 153 -126 153q-123 0 -138 -172zM908 88v1v-1z" />
<glyph unicode="&#xeb;" horiz-adv-x="1004" d="M53 453v35q0 228 119 366t331 137q198 0 310.5 -118t112.5 -323v-160h-556l-2 -5q10 -78 62 -125t135.5 -47t133.5 12t137 48l72 -184q-67 -49 -168.5 -79t-214.5 -30q-213 0 -342.5 133t-129.5 340zM104 1352.5q0 50.5 39 85t96 34.5t96.5 -34.5t39.5 -84.5t-39.5 -85 t-96.5 -35t-96 34.5t-39 85zM365 585l3 -5h261v24q0 153 -126 153q-123 0 -138 -172zM571 1352.5q0 50.5 39 85t96 34.5t96.5 -34.5t39.5 -84.5t-39.5 -85t-96.5 -35t-96 34.5t-39 85zM908 88v1v-1z" />
<glyph unicode="&#xec;" horiz-adv-x="526" d="M-77 1426l1 5h313l187 -239h-248zM122 0v974h305v-974h-305z" />
<glyph unicode="&#xed;" horiz-adv-x="526" d="M100 0v974h305v-974h-305zM119 1202l177 283h321l-250 -283h-248z" />
<glyph unicode="&#xee;" horiz-adv-x="526" d="M-122 1222v15l291 250h174l295 -253v-12h-239l-144 122l-143 -122h-234zM125 0v974h305v-974h-305z" />
<glyph unicode="&#xef;" horiz-adv-x="526" d="M-117 1331.5q0 50.5 39 85t96 34.5t96.5 -34.5t39.5 -84.5t-39.5 -85t-96.5 -35t-96 34.5t-39 85zM123 0v974h305v-974h-305zM350 1331.5q0 50.5 39 85t96 34.5t96.5 -34.5t39.5 -84.5t-39.5 -85t-96.5 -35t-96 34.5t-39 85z" />
<glyph unicode="&#xf0;" horiz-adv-x="1049" d="M58 418q0 211 107.5 327.5t300.5 116.5q116 0 204 -56q-43 124 -139 217l-160 -99l-70 106l122 76q-97 59 -220 93l98 219q210 -41 373 -157l147 91l69 -107l-114 -73q235 -232 235 -591v-51q0 -160 -63 -286.5t-176 -195.5q-110 -69 -246.5 -69t-243 56.5t-165.5 159.5 q-59 99 -59 223zM361 416q0 -93 45.5 -149t125.5 -56t127.5 74.5t47.5 210.5v88q-61 59 -175 59q-170 0 -170 -227h-1z" />
<glyph unicode="&#xf1;" horiz-adv-x="1040" d="M72 0v974h285l12 -137q101 155 275 155q304 0 304 -388v-604h-304v605q0 82 -33.5 117.5t-108.5 35.5t-127 -58v-700h-303zM171 1258q0 101 60 173.5t147 72.5q36 0 122 -35t94.5 -37.5t36.5 -2.5t47.5 20.5t19.5 60.5l168 -10q0 -103 -60 -174.5t-148 -71.5 q-43 0 -132.5 38t-118.5 38t-48.5 -21t-19.5 -60z" />
<glyph unicode="&#xf2;" horiz-adv-x="1035" d="M41 475v19q0 224 125 360t346 136t346 -136t125 -360v-19q0 -225 -125 -360.5t-346 -135.5t-346 135t-125 361zM189 1446l1 5h313l187 -239h-248zM345 475q0 -262 167.5 -262t167.5 262v19q0 262 -167.5 262t-167.5 -262v-19z" />
<glyph unicode="&#xf3;" horiz-adv-x="1035" d="M41 475v19q0 224 125 360t346 136t346 -136t125 -360v-19q0 -225 -125 -360.5t-346 -135.5t-346 135t-125 361zM345 475q0 -262 167.5 -262t167.5 262v19q0 262 -167.5 262t-167.5 -262v-19zM408 1222l177 283h321l-250 -283h-248z" />
<glyph unicode="&#xf4;" horiz-adv-x="1035" d="M41 475v19q0 224 125 360t346 136t346 -136t125 -360v-19q0 -225 -125 -360.5t-346 -135.5t-346 135t-125 361zM142 1242v15l291 250h174l295 -253v-12h-239l-144 122l-143 -122h-234zM345 475q0 -262 167.5 -262t167.5 262v19q0 262 -167.5 262t-167.5 -262v-19z" />
<glyph unicode="&#xf5;" horiz-adv-x="1035" d="M41 475v19q0 224 125 360t346 136t346 -136t125 -360v-19q0 -225 -125 -360.5t-346 -135.5t-346 135t-125 361zM174 1258q0 101 60 173.5t147 72.5q36 0 122 -35t94.5 -37.5t36.5 -2.5t47.5 20.5t19.5 60.5l168 -10q0 -103 -60 -174.5t-148 -71.5q-43 0 -133 38 t-118.5 38t-48 -21t-19.5 -60zM345 475q0 -262 167.5 -262t167.5 262v19q0 262 -167.5 262t-167.5 -262v-19z" />
<glyph unicode="&#xf6;" horiz-adv-x="1035" d="M41 475v19q0 224 125 360t346 136t346 -136t125 -360v-19q0 -225 -125 -360.5t-346 -135.5t-346 135t-125 361zM148 1351.5q0 50.5 39 85t96 34.5t96.5 -34.5t39.5 -84.5t-39.5 -85t-96.5 -35t-96 34.5t-39 85zM345 475q0 -262 167.5 -262t167.5 262v19q0 262 -167.5 262 t-167.5 -262v-19zM615 1351.5q0 50.5 39 85t96 34.5t96.5 -34.5t39.5 -84.5t-39.5 -85t-96.5 -35t-96 34.5t-39 85z" />
<glyph unicode="&#xf7;" horiz-adv-x="1049" d="M53 523v219h940v-219h-940zM372 158v221h305v-221h-305zM372 881v220h305v-220h-305z" />
<glyph unicode="&#xf8;" horiz-adv-x="1036" d="M47 480q0 148 56.5 261.5t162 174.5t249.5 61q86 0 159 -22l62 128h159l-92 -191q182 -134 182 -429q0 -230 -125.5 -363t-342.5 -133q-82 0 -154 20l-64 -132h-160l94 194q-186 130 -186 431zM350 464q0 -88 16 -143l202 414q-26 8 -52 8q-153 0 -165 -226zM470 207 q16 -5 47 -5q162 0 166 250l-1 29q0 70 -15 133z" />
<glyph unicode="&#xf9;" horiz-adv-x="1040" d="M69 378v594h304v-596q0 -163 119 -163q98 0 150 54v705h304v-974h-266l-19 115q-97 -134 -269 -134q-155 0 -239 98.5t-84 300.5zM185 1446l1 5h313l187 -239h-248z" />
<glyph unicode="&#xfa;" horiz-adv-x="1040" d="M69 378v594h304v-596q0 -163 119 -163q98 0 150 54v705h304v-974h-266l-19 115q-97 -134 -269 -134q-155 0 -239 98.5t-84 300.5zM404 1222l177 283h321l-250 -283h-248z" />
<glyph unicode="&#xfb;" horiz-adv-x="1040" d="M69 378v594h304v-596q0 -163 119 -163q98 0 150 54v705h304v-974h-266l-19 115q-97 -134 -269 -134q-155 0 -239 98.5t-84 300.5zM138 1242v15l291 250h174l295 -253v-12h-239l-144 122l-143 -122h-234z" />
<glyph unicode="&#xfc;" horiz-adv-x="1040" d="M69 378v594h304v-596q0 -163 119 -163q98 0 150 54v705h304v-974h-266l-19 115q-97 -134 -269 -134q-155 0 -239 98.5t-84 300.5zM144 1351.5q0 50.5 39 85t96 34.5t96.5 -34.5t39.5 -84.5t-39.5 -85t-96.5 -35t-96 34.5t-39 85zM611 1351.5q0 50.5 39 85t96 34.5 t96.5 -34.5t39.5 -84.5t-39.5 -85t-96.5 -35t-96 34.5t-39 85z" />
<glyph unicode="&#xfd;" horiz-adv-x="955" d="M-5 930h324l147 -544v-8h6l161 552h324l-388 -1119q-64 -153 -149 -203q-77 -45 -193 -45h-21q-8 0 -19 1.5t-16 2t-19 3.5t-18 4t-24 5.5t-27 6.5l37 217q28 -5 34 -5q70 0 104 20t50 65l24 63zM365 1222l177 283h321l-250 -283h-248z" />
<glyph unicode="&#xfe;" horiz-adv-x="1033" d="M86 -416v1757h304v-485q84 94 218 94q178 0 278 -130.5t100 -366.5l1 -15q0 -228 -101.5 -363t-276.5 -135q-134 0 -219 97v-453h-304zM390 253q38 -79 144 -79q145 0 149 249v34q0 259 -151 259q-104 0 -142 -75v-388z" />
<glyph unicode="&#xff;" horiz-adv-x="955" d="M-5 930h324l147 -544v-8h6l161 552h324l-388 -1119q-64 -153 -149 -203q-77 -45 -193 -45h-21q-8 0 -19 1.5t-16 2t-19 3.5t-18 4t-24 5.5t-27 6.5l37 217q28 -5 34 -5q70 0 104 20t50 65l24 63zM105 1351.5q0 50.5 39 85t96 34.5t96.5 -34.5t39.5 -84.5t-39.5 -85 t-96.5 -35t-96 34.5t-39 85zM572 1351.5q0 50.5 39 85t96 34.5t96.5 -34.5t39.5 -84.5t-39.5 -85t-96.5 -35t-96 34.5t-39 85z" />
<glyph unicode="&#x152;" horiz-adv-x="1795" d="M82 516v274q0 157 71 279.5t201 189.5q125 67 293 67q111 0 262 -18h819v-243h-589v-277h497v-235h-497v-312h587l-2 -244h-817q-151 -18 -259 -18q-166 0 -294.5 67t-200.5 191q-71 124 -71 279zM385 515h1q0 -149 69 -225.5t194 -76.5q96 0 173 11v856q-85 11 -176 11 q-124 0 -192.5 -75.5t-68.5 -224.5v-276z" />
<glyph unicode="&#x153;" horiz-adv-x="1661" d="M68 443l2 51q0 148 56.5 260.5t163.5 174.5q108 61 249 61q196 0 321 -112q118 113 311.5 112.5t305.5 -118.5t112 -328v-154h-564q16 -84 69.5 -130t135.5 -46q113 0 198 32l69 28l72 -185q-66 -49 -169 -79t-213 -30q-193 0 -323 115q-126 -115 -330 -115t-330 123.5 t-136 339.5zM374 475q0 -261 168 -261q161 0 167 248v32q0 262 -169 262q-153 0 -165 -226zM1025 579h269v24h1q0 153 -127 153q-121 0 -143 -177z" />
<glyph unicode="&#x178;" horiz-adv-x="1157" d="M-3 1310h329l260 -572h5l261 572h331l-446 -849v-461h-303v476zM220 1661.5q0 50.5 39 85t96 34.5t96.5 -34.5t39.5 -84.5t-39.5 -85t-96.5 -35t-96 34.5t-39 85zM687 1661.5q0 50.5 39 85t96 34.5t96.5 -34.5t39.5 -84.5t-39.5 -85t-96.5 -35t-96 34.5t-39 85z" />
<glyph unicode="&#x2c6;" horiz-adv-x="930" d="M87 1242v15l291 250h174l295 -253v-12h-239l-144 122l-143 -122h-234z" />
<glyph unicode="&#x2dc;" horiz-adv-x="888" d="M102 1262q0 101 60 173.5t147 72.5q36 0 122 -35t94.5 -37.5t36.5 -2.5t47.5 20.5t19.5 60.5l168 -10q0 -103 -60 -174.5t-148 -71.5q-43 0 -133 38t-118.5 38t-48 -21t-19.5 -60z" />
<glyph unicode="&#x2000;" horiz-adv-x="946" />
<glyph unicode="&#x2001;" horiz-adv-x="1892" />
<glyph unicode="&#x2002;" horiz-adv-x="946" />
<glyph unicode="&#x2003;" horiz-adv-x="1892" />
<glyph unicode="&#x2004;" horiz-adv-x="630" />
<glyph unicode="&#x2005;" horiz-adv-x="473" />
<glyph unicode="&#x2006;" horiz-adv-x="315" />
<glyph unicode="&#x2007;" horiz-adv-x="315" />
<glyph unicode="&#x2008;" horiz-adv-x="236" />
<glyph unicode="&#x2009;" horiz-adv-x="378" />
<glyph unicode="&#x200a;" horiz-adv-x="105" />
<glyph unicode="&#x2010;" horiz-adv-x="829" d="M137 497v235h541v-235h-541z" />
<glyph unicode="&#x2011;" horiz-adv-x="829" d="M137 497v235h541v-235h-541z" />
<glyph unicode="&#x2012;" horiz-adv-x="829" d="M137 497v235h541v-235h-541z" />
<glyph unicode="&#x2013;" horiz-adv-x="1271" d="M130 578v214h877v-214h-877z" />
<glyph unicode="&#x2014;" horiz-adv-x="1508" d="M126 578v214h1080v-214h-1080z" />
<glyph unicode="&#x2018;" horiz-adv-x="618" d="M161 914v176l146 314h150l-54 -309v-181h-242z" />
<glyph unicode="&#x2019;" horiz-adv-x="618" d="M171 914l54 316v174h242v-175l-146 -315h-150z" />
<glyph unicode="&#x201a;" horiz-adv-x="500" d="M75 -238q65 113 66 252v179h233l-1 -171q-1 -81 -48 -175t-117 -157z" />
<glyph unicode="&#x201c;" horiz-adv-x="925" d="M161 914v176l146 314h150l-54 -309v-181h-242zM467 914v176l146 314h150l-54 -309v-181h-242z" />
<glyph unicode="&#x201d;" horiz-adv-x="932" d="M163 914l54 316v174h242v-175l-146 -315h-150zM474 914l54 316v174h242v-175l-146 -315h-150z" />
<glyph unicode="&#x201e;" horiz-adv-x="788" d="M74 -256q65 120 66 268v198h233l-1 -185q0 -88 -43.5 -186.5t-111.5 -166.5zM390 -257q75 137 76 266v200h233l-1 -192l-1 1q-1 -85 -47 -181.5t-116 -165.5z" />
<glyph unicode="&#x2022;" horiz-adv-x="681" d="M121 682v97q0 96 62 156t166 60t166 -59t62 -157v-97q0 -97 -61.5 -155.5t-166 -58.5t-166.5 59t-62 155z" />
<glyph unicode="&#x2026;" horiz-adv-x="1428" d="M120 0v230h273v-230h-273zM560 0v230h273v-230h-273zM999 0v230h273v-230h-273z" />
<glyph unicode="&#x202f;" horiz-adv-x="378" />
<glyph unicode="&#x2039;" horiz-adv-x="585" d="M97 467v17l245 351h185l-208 -360l208 -359h-185z" />
<glyph unicode="&#x203a;" horiz-adv-x="558" d="M68 115l209 359l-209 360h187l245 -351v-17l-245 -351h-187z" />
<glyph unicode="&#x205f;" horiz-adv-x="473" />
<glyph unicode="&#x20ac;" d="M79 455v144h148v110h-148v143h151q17 224 166 349t398 125q96 0 208 -28l-39 -243q-69 28 -151 28q-125 0 -190.5 -56.5t-76.5 -174.5h278v-143h-281v-110h281l2 -144h-281q4 -121 64.5 -176.5t197.5 -55.5q83 0 158 27l39 -242q-127 -27 -237 -27q-245 0 -388.5 126 t-150.5 348h-148z" />
<glyph unicode="&#x2122;" horiz-adv-x="1168" d="M112 1297v105h377v-105h-109v-380h-151v380h-117zM548 913v489h162l96 -322l105 322h151v-489h-132v303l-88 -303h-74l-88 306v-306h-132z" />
<glyph unicode="&#x25fc;" horiz-adv-x="975" d="M0 0v975h975v-975h-975z" />
</font>
</defs>
</svg>
